<svg width="28" height="28" viewBox="0 0 28 28" fill="none" xmlns="http://www.w3.org/2000/svg">
<circle cx="14" cy="14" r="14" fill="#EFEFEF"/>
<path d="M8.83836 21V18.6C8.83836 18.0133 8.91836 17.5133 9.07836 17.1C9.25169 16.6867 9.54503 16.3133 9.95836 15.98C10.3717 15.6333 10.9317 15.3 11.6384 14.98L14.3784 13.72C15.045 13.4133 15.5717 13.02 15.9584 12.54C16.345 12.0467 16.5384 11.4133 16.5384 10.64C16.5384 9.70667 16.2784 8.98 15.7584 8.46C15.2384 7.94 14.505 7.68 13.5584 7.68C12.625 7.68 11.8917 7.94 11.3584 8.46C10.825 8.98 10.5584 9.70667 10.5584 10.64H8.67836C8.67836 9.8 8.85169 9.02667 9.19836 8.32C9.55836 7.61333 10.0984 7.05333 10.8184 6.64C11.5384 6.21333 12.4517 6 13.5584 6C14.665 6 15.5717 6.21333 16.2784 6.64C16.9984 7.05333 17.5317 7.6 17.8784 8.28C18.2384 8.96 18.4184 9.7 18.4184 10.5V10.78C18.4184 11.8333 18.1117 12.72 17.4984 13.44C16.8984 14.16 16.085 14.7533 15.0584 15.22L12.3184 16.48C11.705 16.76 11.2917 17.04 11.0784 17.32C10.865 17.6 10.7584 17.9733 10.7584 18.44V20.28L10.2384 19.36H18.5984V21H8.83836Z" fill="black"/>
</svg>
