<svg width="28" height="28" viewBox="0 0 28 28" fill="none" xmlns="http://www.w3.org/2000/svg">
<circle cx="14" cy="14" r="14" fill="#EFEFEF"/>
<path d="M13.3374 21.36C12.2441 21.36 11.3174 21.1467 10.5574 20.72C9.79742 20.2933 9.21742 19.7267 8.81742 19.02C8.43076 18.3133 8.23742 17.5467 8.23742 16.72H10.1174C10.1174 17.6267 10.4041 18.3467 10.9774 18.88C11.5641 19.4133 12.3508 19.68 13.3374 19.68C13.9908 19.68 14.5574 19.56 15.0374 19.32C15.5174 19.08 15.8908 18.74 16.1574 18.3C16.4241 17.8467 16.5574 17.32 16.5574 16.72C16.5574 15.8133 16.2641 15.08 15.6774 14.52C15.1041 13.96 14.3308 13.68 13.3574 13.68C12.9441 13.68 12.5841 13.7333 12.2774 13.84C11.9841 13.9333 11.7241 14.0533 11.4974 14.2L10.5374 12.48L16.1174 8.4L15.9174 8.04H8.81742V6.4H17.7174V9.06L13.0974 12.42L11.6974 12.48C11.9241 12.4 12.1708 12.3333 12.4374 12.28C12.7174 12.2267 13.0441 12.2 13.4174 12.2C14.4841 12.2 15.3908 12.4 16.1374 12.8C16.8841 13.2 17.4508 13.7333 17.8374 14.4C18.2374 15.0667 18.4374 15.7933 18.4374 16.58V16.86C18.4374 17.6333 18.2374 18.3667 17.8374 19.06C17.4508 19.74 16.8774 20.2933 16.1174 20.72C15.3708 21.1467 14.4441 21.36 13.3374 21.36Z" fill="black"/>
</svg>
