<svg width="28" height="28" viewBox="0 0 28 28" fill="none" xmlns="http://www.w3.org/2000/svg">
<circle cx="14" cy="14" r="14" fill="#EFEFEF"/>
<path d="M13.5895 21.36C12.4695 21.36 11.5229 21.1333 10.7495 20.68C9.9762 20.2133 9.38953 19.6067 8.98953 18.86C8.58953 18.1133 8.38953 17.32 8.38953 16.48H10.2695C10.2695 17.0933 10.4029 17.64 10.6695 18.12C10.9495 18.6 11.3362 18.98 11.8295 19.26C12.3229 19.54 12.9095 19.68 13.5895 19.68C14.2562 19.68 14.8362 19.5467 15.3295 19.28C15.8362 19 16.2295 18.62 16.5095 18.14C16.7895 17.6467 16.9295 17.0933 16.9295 16.48C16.9295 15.8667 16.7895 15.3133 16.5095 14.82C16.2429 14.3267 15.8562 13.9333 15.3495 13.64C14.8562 13.3467 14.2695 13.2 13.5895 13.2C13.0962 13.2 12.5962 13.2867 12.0895 13.46C11.5829 13.62 11.1762 13.8533 10.8695 14.16H9.10953L9.84953 6.4H17.5095V8.04H10.9695L11.4495 7.38L10.8895 13.04L10.3695 12.86C10.7562 12.4733 11.2229 12.1667 11.7695 11.94C12.3295 11.7133 12.9629 11.6 13.6695 11.6C14.7895 11.6 15.7295 11.8333 16.4895 12.3C17.2495 12.7533 17.8229 13.3467 18.2095 14.08C18.6095 14.8 18.8095 15.5533 18.8095 16.34V16.62C18.8095 17.4067 18.6095 18.1667 18.2095 18.9C17.8095 19.62 17.2162 20.2133 16.4295 20.68C15.6562 21.1333 14.7095 21.36 13.5895 21.36Z" fill="black"/>
</svg>
